<svg xmlns="http://www.w3.org/2000/svg" xml:space="preserve" width="145.668" height="30"><path fill="#F9F9F9" d="M0 7.879h42.353v14.117H0z"/><path fill="#09599E" d="M1.765-.062h38.824c.97 0 1.765.794 1.765 1.765V7.88H0V1.702C0 .731.794-.062 1.765-.062z"/><path fill="#E59703" d="M0 21.996h42.353v6.177c0 .971-.794 1.765-1.765 1.765H1.765C.794 29.938 0 29.144 0 28.173v-6.177z"/><path fill="#FFF" d="M1.765 29.894C.794 29.894 0 29.1 0 28.129V1.702C0 .731.794-.063 1.765-.063h38.824c.97 0 1.765.794 1.765 1.765" opacity=".05"/><path fill="#00589F" d="m16.368 18.644 1.279-7.456h2.029l-1.279 7.456zM25.765 11.408c-.397-.132-1.015-.309-1.809-.309-2.03 0-3.441 1.015-3.441 2.471 0 1.059 1.015 1.676 1.765 2.029.794.353 1.059.618 1.059.926 0 .485-.618.75-1.235.75-.794 0-1.235-.132-1.897-.396l-.265-.177-.265 1.677c.485.221 1.368.396 2.25.396 2.118 0 3.53-1.015 3.53-2.559 0-.838-.53-1.5-1.721-2.029-.706-.353-1.147-.574-1.147-.926 0-.309.353-.662 1.147-.662.662 0 1.147.132 1.5.265l.176.088.353-1.544M30.971 11.231h-1.588c-.485 0-.838.132-1.059.618l-3 6.838h2.118s.353-.927.441-1.103h2.603c.044.265.265 1.103.265 1.103h1.897l-1.677-7.456m-2.515 4.765c.176-.441.794-2.073.794-2.073s.176-.441.265-.706l.132.662s.397 1.765.485 2.161h-1.676v-.044zM14.647 11.231l-1.985 5.073-.22-1.014c-.353-1.191-1.544-2.471-2.824-3.132l1.853 6.485h2.162l3.221-7.456h-2.206"/><path fill="#F9A51A" d="M10.809 11.188H7.544l-.044.176c2.559.618 4.235 2.118 4.941 3.882l-.706-3.397c-.088-.485-.485-.618-.926-.661"/><path fill="#4361C3" d="M53.588-.084h38.824c.971 0 1.765.794 1.765 1.765v26.47c0 .971-.794 1.766-1.765 1.766H53.588c-.971 0-1.765-.795-1.765-1.766V1.68c0-.971.794-1.764 1.765-1.764z"/><path fill="#FFAF38" d="M78.073 8.739c3.529 0 6.397 2.868 6.397 6.397 0 3.53-2.868 6.397-6.397 6.397s-6.397-2.867-6.397-6.397c0-3.529 2.868-6.397 6.397-6.397z"/><path fill="#FFAF38" d="M72.559 11.827h4.412v.882h-4.412z"/><path fill="#EB3636" d="M67.926 21.533c-3.529 0-6.397-2.867-6.397-6.397 0-3.529 2.868-6.397 6.397-6.397s6.397 2.868 6.397 6.397c0 3.53-2.867 6.397-6.397 6.397z"/><path fill="#FFAF38" d="M72.559 18.004v-.883h5.735v.883h-5.735zm0-6.177h5.735v.882h-5.735v-.882zm5.294 2.647h-5.735v-.882h5.735v.882zm0 1.765h-5.735v-.882h5.735v.882z"/><path fill="#FFF" d="M53.588 29.916h.794L94.176 2.474V1.68c0-.971-.794-1.765-1.765-1.765H53.588c-.971 0-1.765.794-1.765 1.765v26.47c0 .971.794 1.766 1.765 1.766z" opacity=".05"/><path fill="#F7F6F4" d="M105.035-.085h38.824c.971 0 1.765.794 1.765 1.765v26.47c0 .971-.794 1.765-1.765 1.765h-38.824c-.971 0-1.764-.794-1.764-1.765V1.68c0-.971.793-1.765 1.764-1.765z"/><path fill="#053385" d="m126.301 14.121-4.059 5.955c-.045.089-.178.133-.31.133h-1.235c-.176 0-.265-.176-.176-.353l1.279-1.81-1.324-4.014c-.044-.132.045-.265.221-.265h1.191c.176 0 .309.088.354.265l.705 2.426 1.677-2.515c.044-.088.177-.176.309-.176h1.235c.133.001.221.222.133.354zm-7.457 4.412h-1.102c-.133 0-.221-.133-.221-.266l.043-.353s-.617.706-1.676.706c-.617 0-1.146-.177-1.544-.617-.397-.486-.573-1.191-.441-1.897.221-1.456 1.368-2.471 2.735-2.471.574 0 1.191.132 1.456.529l.088.132.044-.353c0-.088.088-.176.221-.176h1.235c.132 0 .221.132.221.265l-.661 4.235c-.089.133-.221.266-.398.266zm-1.102-3.221c-.178-.221-.486-.354-.795-.354-.705 0-1.234.485-1.367 1.191-.045.353 0 .662.176.883.177.221.486.352.839.352.706 0 1.235-.484 1.367-1.189.044-.354-.044-.662-.22-.883zm-6.398.838h-.793c-.177 0-.309.133-.354.309l-.265 1.765c-.044.177-.177.31-.353.31h-1.191c-.133 0-.221-.133-.221-.266l1.015-6.617c.044-.176.177-.309.353-.309h2.56c.838 0 1.499.221 1.853.662.309.397.441.971.309 1.676-.31 1.676-1.28 2.47-2.913 2.47zm.883-3.044c-.221-.265-.662-.265-1.103-.265h-.177c-.088 0-.176.088-.221.177l-.265 1.721h.397c.662 0 1.367 0 1.5-.927.045-.309.001-.573-.131-.706z"/><path fill="#199DDB" d="M139.756 18.268c-.044.177-.176.309-.353.309h-1.059c-.132 0-.221-.132-.221-.264l1.06-6.706c0-.088.088-.177.22-.177h1.19c.133 0 .221.132.221.265l-1.058 6.573zm-2.823.265h-1.103c-.133 0-.221-.133-.221-.266l.044-.353s-.618.706-1.677.706c-.617 0-1.146-.177-1.544-.617-.397-.486-.573-1.191-.441-1.897.221-1.456 1.368-2.471 2.735-2.471.574 0 1.191.132 1.456.529l.089.132.044-.353c0-.088.088-.176.22-.176h1.236c.132 0 .221.132.221.265l-.662 4.235c-.045.133-.221.266-.397.266zm-1.103-3.221c-.177-.221-.485-.354-.795-.354-.705 0-1.234.485-1.367 1.191-.044.353 0 .662.176.883.178.221.486.352.839.352.706 0 1.235-.484 1.368-1.189.044-.354 0-.662-.221-.883zm-6.397.838h-.794c-.177 0-.309.133-.354.309l-.309 1.896c0 .133-.132.221-.264.221h-1.324c-.133 0-.221-.132-.221-.264l1.015-6.618c.044-.176.177-.309.353-.309h2.559c.839 0 1.501.221 1.854.662.309.397.441.971.309 1.676-.177 1.633-1.148 2.427-2.824 2.427zm.881-3.044c-.221-.265-.661-.265-1.103-.265h-.177c-.088 0-.176.088-.22.177l-.265 1.721h.396c.662 0 1.367 0 1.5-.927.047-.309.002-.573-.131-.706z"/><path fill="#FFF" d="M105.697 29.915c-1.323 0-2.426-1.103-2.426-2.47V2.386c0-1.368 1.059-2.471 2.426-2.471h37.544c1.323 0 2.427 1.103 2.427 2.471" opacity=".12"/></svg>