<?xml version="1.0" encoding="UTF-8" ?>
<!DOCTYPE svg PUBLIC "-//W3C//DTD SVG 1.1//EN" "http://www.w3.org/Graphics/SVG/1.1/DTD/svg11.dtd">
<svg width="386pt" height="257pt" viewBox="0 0 386 257" version="1.1" xmlns="http://www.w3.org/2000/svg">
<g id="#39354158">
<path fill="#393541" opacity="0.35" d=" M 8.43 0.00 L 377.06 0.00 L 378.49 0.75 C 374.65 0.99 370.82 1.06 366.98 1.00 C 248.98 0.99 130.98 1.00 12.99 1.00 C 11.01 0.97 9.03 0.85 7.06 0.76 L 8.43 0.00 Z" />
</g>
<g id="#7742aeff">
<path fill="#7742ae" opacity="1.00" d=" M 1.79 5.26 C 2.83 3.07 5.03 1.89 7.06 0.76 C 9.03 0.85 11.01 0.97 12.99 1.00 C 130.98 1.00 248.98 0.99 366.98 1.00 C 370.82 1.06 374.65 0.99 378.49 0.75 C 380.70 1.94 383.14 3.24 384.10 5.73 C 384.76 10.13 384.59 14.58 384.60 19.00 C 384.60 74.00 384.66 129.00 384.67 184.00 C 384.56 206.05 384.94 228.10 384.52 250.14 C 383.75 252.99 381.31 254.67 378.91 256.08 C 347.93 255.67 316.94 256.02 285.95 255.91 C 232.04 255.93 178.13 255.88 124.23 255.94 C 120.71 249.30 116.59 243.01 113.01 236.42 C 129.03 236.37 145.05 236.43 161.06 236.39 C 163.27 236.56 165.67 235.30 166.16 233.02 C 166.83 228.94 166.36 224.78 166.26 220.66 C 141.82 220.35 117.38 220.63 92.94 220.57 C 90.43 220.21 88.84 222.16 87.42 223.87 C 93.39 234.71 99.89 245.25 106.10 255.94 C 95.79 255.89 85.47 255.89 75.15 255.94 C 69.47 244.20 62.51 233.13 56.47 221.58 C 55.13 219.45 53.94 216.22 50.98 216.15 C 48.84 216.08 47.46 217.93 46.46 219.57 C 39.23 231.67 31.92 243.71 24.90 255.94 C 18.92 255.91 12.93 255.75 6.95 256.17 C 4.27 254.84 2.04 252.76 0.79 250.02 C 0.88 248.18 1.03 246.36 1.10 244.54 C 4.50 240.59 6.84 235.90 9.47 231.44 C 19.51 214.22 29.77 197.13 39.70 179.84 C 37.06 175.89 32.06 176.76 27.96 176.73 C 18.97 176.93 9.97 176.39 0.99 177.05 C 0.85 168.55 1.18 160.05 0.79 151.57 C 5.79 152.63 10.93 152.21 16.00 152.25 C 29.68 152.28 43.37 152.17 57.06 152.27 C 59.29 152.16 61.84 152.36 63.68 150.85 C 65.17 148.76 63.34 146.51 62.41 144.62 C 54.10 131.09 46.32 117.24 37.91 103.79 C 33.42 105.93 29.13 108.47 24.93 111.13 C 29.00 119.96 35.24 127.63 39.06 136.58 C 26.45 136.49 13.83 136.61 1.22 136.50 L 1.26 135.86 C 0.96 96.60 1.29 57.33 1.15 18.06 C 1.16 13.78 2.15 9.55 1.79 5.26 M 74.29 39.41 C 72.34 40.81 71.99 43.71 73.61 45.51 C 75.77 48.18 80.89 46.54 80.80 42.97 C 81.21 39.68 76.85 37.31 74.29 39.41 M 112.76 38.65 C 112.71 50.72 112.67 62.79 112.78 74.86 C 114.88 74.85 116.97 74.85 119.07 74.84 C 119.38 62.81 119.18 50.76 119.18 38.72 C 117.04 38.69 114.90 38.66 112.76 38.65 M 125.25 39.35 C 123.17 40.63 122.71 43.88 124.52 45.59 C 126.74 48.13 131.81 46.54 131.59 42.93 C 131.95 39.71 127.82 37.34 125.25 39.35 M 323.65 46.52 C 324.44 50.36 326.10 54.06 325.97 58.04 C 326.31 62.34 324.57 66.36 323.66 70.47 C 326.38 71.08 326.83 68.33 327.47 66.40 C 329.42 60.00 328.92 52.86 325.96 46.86 C 325.38 46.78 324.23 46.61 323.65 46.52 M 42.24 49.11 C 42.24 51.13 42.24 53.15 42.24 55.16 C 46.55 55.50 50.86 55.28 55.18 55.35 C 50.42 62.32 43.91 67.87 38.98 74.72 C 41.61 74.84 44.25 74.88 46.88 74.88 C 54.24 66.35 61.82 58.01 68.96 49.30 C 60.09 48.47 51.12 48.77 42.24 49.11 M 73.46 49.22 C 73.57 57.74 73.54 66.25 73.48 74.77 C 75.56 74.82 77.65 74.85 79.74 74.88 C 79.75 66.27 79.73 57.67 79.76 49.06 C 77.66 48.83 75.54 48.83 73.46 49.22 M 84.89 48.72 C 84.58 57.43 84.75 66.15 84.80 74.87 C 86.93 74.86 89.05 74.86 91.18 74.85 C 91.26 70.57 91.22 66.29 91.25 62.01 C 95.75 65.74 100.11 69.65 104.53 73.49 C 105.33 74.31 106.43 74.64 107.49 74.97 C 107.50 66.37 107.44 57.77 107.53 49.17 C 105.43 48.95 103.32 48.83 101.22 48.86 C 101.13 53.17 101.20 57.48 101.11 61.80 C 95.35 57.87 90.94 52.21 84.89 48.72 M 124.31 49.09 C 124.33 57.67 124.36 66.24 124.30 74.82 C 126.43 74.83 128.55 74.84 130.68 74.83 C 130.64 66.25 130.64 57.66 130.68 49.08 C 128.56 48.84 126.42 48.85 124.31 49.09 M 319.20 49.54 C 320.46 53.24 321.27 57.16 320.75 61.08 C 320.55 63.51 319.36 65.84 319.79 68.31 C 320.22 68.08 321.08 67.61 321.51 67.38 C 324.22 61.78 323.94 55.04 321.53 49.38 C 320.95 49.42 319.78 49.50 319.20 49.54 M 314.96 51.96 C 315.83 56.39 316.05 60.91 314.77 65.29 C 315.34 65.24 316.48 65.12 317.04 65.06 C 318.63 61.59 318.78 57.55 317.76 53.90 C 317.58 52.52 316.57 50.87 314.96 51.96 M 310.60 54.45 C 309.89 57.19 310.46 60.12 310.38 62.93 C 313.30 62.51 312.77 59.05 312.67 56.89 C 312.68 55.71 312.12 53.95 310.60 54.45 M 50.69 74.80 C 56.54 74.93 62.39 74.86 68.24 74.84 C 68.26 72.80 68.27 70.76 68.28 68.72 C 64.15 68.72 60.01 68.46 55.88 68.74 C 53.53 70.12 52.15 72.59 50.69 74.80 M 61.10 91.15 C 72.59 110.82 84.08 130.50 95.70 150.11 C 97.40 152.65 98.35 156.78 102.06 156.88 C 104.62 156.48 105.59 153.68 106.82 151.76 C 114.18 138.20 121.95 124.83 128.94 111.09 C 124.58 108.84 120.52 105.97 115.95 104.18 C 110.43 111.93 106.74 121.11 101.35 129.06 C 93.78 116.49 86.29 103.86 78.78 91.25 C 77.18 88.90 76.30 85.19 73.04 84.71 C 68.61 85.79 64.97 88.85 61.10 91.15 M 144.33 137.46 C 134.54 154.21 124.53 170.82 114.71 187.55 C 113.56 189.24 112.89 191.79 114.62 193.36 C 116.65 195.94 120.22 195.11 123.06 195.25 C 136.73 195.30 150.39 194.76 164.04 195.24 C 165.36 195.35 167.60 194.90 167.31 193.10 C 167.46 189.04 167.45 184.97 167.29 180.91 C 167.69 178.77 165.38 178.89 163.95 178.81 C 155.32 178.68 146.68 178.97 138.05 178.72 C 146.11 164.63 154.46 150.69 162.57 136.62 C 163.78 134.97 163.46 132.45 161.68 131.35 C 158.56 129.10 155.10 127.37 151.81 125.39 C 148.95 129.18 146.90 133.49 144.33 137.46 M 314.82 210.03 C 315.22 215.04 321.89 215.15 323.47 219.01 C 321.64 222.78 316.42 220.35 313.21 219.98 C 312.97 221.74 312.72 223.50 312.47 225.26 C 317.24 226.34 322.79 227.13 327.03 224.10 C 330.39 221.92 331.37 216.48 328.34 213.65 C 326.10 211.88 323.52 210.63 321.17 209.02 C 322.81 205.28 327.26 207.04 330.28 207.43 C 330.61 205.84 330.95 204.25 331.30 202.66 C 325.30 199.52 314.62 201.94 314.82 210.03 M 275.66 202.07 C 277.67 203.68 280.44 203.88 282.42 205.50 C 284.70 212.14 285.88 219.12 287.96 225.83 C 290.19 225.82 292.43 225.81 294.66 225.79 C 297.89 217.79 301.47 209.94 304.56 201.89 C 302.34 201.98 299.99 201.48 297.87 202.28 C 295.57 207.13 294.12 212.36 291.61 217.12 C 289.97 212.32 290.78 206.57 287.84 202.34 C 283.86 201.41 279.70 201.91 275.66 202.07 M 307.06 202.03 C 305.32 209.95 303.46 217.86 302.04 225.86 C 304.15 225.82 306.27 225.78 308.39 225.71 C 309.94 217.74 311.97 209.86 313.36 201.86 C 311.25 201.88 309.15 201.92 307.06 202.03 M 337.88 205.96 C 335.26 212.61 332.07 219.04 329.82 225.83 C 332.02 225.82 334.23 225.79 336.44 225.73 C 336.79 224.60 337.14 223.47 337.49 222.35 C 339.99 222.29 342.49 222.25 345.00 222.19 C 345.43 223.39 345.84 224.59 346.27 225.79 C 348.15 225.80 350.04 225.80 351.93 225.81 C 350.38 217.85 348.74 209.90 346.93 201.99 C 344.97 201.92 342.99 201.71 341.04 202.01 C 339.01 202.19 338.69 204.51 337.88 205.96 Z" />
</g>
<g id="#bdbdc1ff">
<path fill="#bdbdc1" opacity="1.00" d=" M 0.46 8.34 C 0.80 7.57 1.46 6.03 1.79 5.26 C 2.15 9.55 1.16 13.78 1.15 18.06 C 1.29 57.33 0.96 96.60 1.26 135.86 C 0.87 130.59 1.09 125.30 1.04 120.02 C 1.04 85.67 1.00 51.33 1.03 16.98 C 0.93 14.11 1.71 11.06 0.46 8.34 Z" />
<path fill="#bdbdc1" opacity="1.00" d=" M 384.10 5.73 C 384.30 6.14 384.72 6.94 384.93 7.34 C 384.86 88.01 384.92 168.69 384.86 249.37 C 384.78 249.56 384.61 249.95 384.52 250.14 C 384.94 228.10 384.56 206.05 384.67 184.00 C 384.66 129.00 384.60 74.00 384.60 19.00 C 384.59 14.58 384.76 10.13 384.10 5.73 Z" />
<path fill="#bdbdc1" opacity="1.00" d=" M 314.82 210.03 C 314.62 201.94 325.30 199.52 331.30 202.66 C 330.95 204.25 330.61 205.84 330.28 207.43 C 327.26 207.04 322.81 205.28 321.17 209.02 C 323.52 210.63 326.10 211.88 328.34 213.65 C 331.37 216.48 330.39 221.92 327.03 224.10 C 322.79 227.13 317.24 226.34 312.47 225.26 C 312.72 223.50 312.97 221.74 313.21 219.98 C 316.42 220.35 321.64 222.78 323.47 219.01 C 321.89 215.15 315.22 215.04 314.82 210.03 Z" />
<path fill="#bdbdc1" opacity="1.00" d=" M 275.66 202.07 C 279.70 201.91 283.86 201.41 287.84 202.34 C 290.78 206.57 289.97 212.32 291.61 217.12 C 294.12 212.36 295.57 207.13 297.87 202.28 C 299.99 201.48 302.34 201.98 304.56 201.89 C 301.47 209.94 297.89 217.79 294.66 225.79 C 292.43 225.81 290.19 225.82 287.96 225.83 C 285.88 219.12 284.70 212.14 282.42 205.50 C 280.44 203.88 277.67 203.68 275.66 202.07 Z" />
<path fill="#bdbdc1" opacity="1.00" d=" M 307.06 202.03 C 309.15 201.92 311.25 201.88 313.36 201.86 C 311.97 209.86 309.94 217.74 308.39 225.71 C 306.27 225.78 304.15 225.82 302.04 225.86 C 303.46 217.86 305.32 209.95 307.06 202.03 Z" />
<path fill="#bdbdc1" opacity="1.00" d=" M 337.88 205.96 C 338.69 204.51 339.01 202.19 341.04 202.01 C 342.99 201.71 344.97 201.92 346.93 201.99 C 348.74 209.90 350.38 217.85 351.93 225.81 C 350.04 225.80 348.15 225.80 346.27 225.79 C 345.84 224.59 345.43 223.39 345.00 222.19 C 342.49 222.25 339.99 222.29 337.49 222.35 C 337.14 223.47 336.79 224.60 336.44 225.73 C 334.23 225.79 332.02 225.82 329.82 225.83 C 332.07 219.04 335.26 212.61 337.88 205.96 M 339.54 217.13 C 341.02 217.15 342.51 217.16 344.00 217.17 C 343.69 214.67 343.22 212.19 342.52 209.76 C 341.30 212.12 340.36 214.61 339.54 217.13 Z" />
</g>
<g id="#423f4a6e">
<path fill="#423f4a" opacity="0.43" d=" M 0.00 7.91 L 0.46 8.34 C 1.71 11.06 0.93 14.11 1.03 16.98 C 1.00 51.33 1.04 85.67 1.04 120.02 C 1.09 125.30 0.87 130.59 1.26 135.86 L 1.22 136.50 C 0.71 141.51 1.34 146.56 0.79 151.57 L 0.00 152.64 L 0.00 7.91 Z" />
</g>
<g id="#12111421">
<path fill="#121114" opacity="0.13" d=" M 384.93 7.34 L 386.00 8.58 L 386.00 248.74 L 384.86 249.37 C 384.92 168.69 384.86 88.01 384.93 7.34 Z" />
</g>
<g id="#35b5a6ff">
<path fill="#35b5a6" opacity="1.00" d=" M 74.29 39.41 C 76.85 37.31 81.21 39.68 80.80 42.97 C 80.89 46.54 75.77 48.18 73.61 45.51 C 71.99 43.71 72.34 40.81 74.29 39.41 Z" />
<path fill="#35b5a6" opacity="1.00" d=" M 125.25 39.35 C 127.82 37.34 131.95 39.71 131.59 42.93 C 131.81 46.54 126.74 48.13 124.52 45.59 C 122.71 43.88 123.17 40.63 125.25 39.35 Z" />
</g>
<g id="#34b4a5ff">
<path fill="#34b4a5" opacity="1.00" d=" M 112.76 38.65 C 114.90 38.66 117.04 38.69 119.18 38.72 C 119.18 50.76 119.38 62.81 119.07 74.84 C 116.97 74.85 114.88 74.85 112.78 74.86 C 112.67 62.79 112.71 50.72 112.76 38.65 Z" />
<path fill="#34b4a5" opacity="1.00" d=" M 310.60 54.45 C 312.12 53.95 312.68 55.71 312.67 56.89 C 312.77 59.05 313.30 62.51 310.38 62.93 C 310.46 60.12 309.89 57.19 310.60 54.45 Z" />
</g>
<g id="#43a5a6ff">
<path fill="#43a5a6" opacity="1.00" d=" M 323.65 46.52 C 324.23 46.61 325.38 46.78 325.96 46.86 C 328.92 52.86 329.42 60.00 327.47 66.40 C 326.83 68.33 326.38 71.08 323.66 70.47 C 324.57 66.36 326.31 62.34 325.97 58.04 C 326.10 54.06 324.44 50.36 323.65 46.52 Z" />
</g>
<g id="#34b3a4ff">
<path fill="#34b3a4" opacity="1.00" d=" M 42.24 49.11 C 51.12 48.77 60.09 48.47 68.96 49.30 C 61.82 58.01 54.24 66.35 46.88 74.88 C 44.25 74.88 41.61 74.84 38.98 74.72 C 43.91 67.87 50.42 62.32 55.18 55.35 C 50.86 55.28 46.55 55.50 42.24 55.16 C 42.24 53.15 42.24 51.13 42.24 49.11 Z" />
<path fill="#34b3a4" opacity="1.00" d=" M 73.46 49.22 C 75.54 48.83 77.66 48.83 79.76 49.06 C 79.73 57.67 79.75 66.27 79.74 74.88 C 77.65 74.85 75.56 74.82 73.48 74.77 C 73.54 66.25 73.57 57.74 73.46 49.22 Z" />
<path fill="#34b3a4" opacity="1.00" d=" M 84.89 48.72 C 90.94 52.21 95.35 57.87 101.11 61.80 C 101.20 57.48 101.13 53.17 101.22 48.86 C 103.32 48.83 105.43 48.95 107.53 49.17 C 107.44 57.77 107.50 66.37 107.49 74.97 C 106.43 74.64 105.33 74.31 104.53 73.49 C 100.11 69.65 95.75 65.74 91.25 62.01 C 91.22 66.29 91.26 70.57 91.18 74.85 C 89.05 74.86 86.93 74.86 84.80 74.87 C 84.75 66.15 84.58 57.43 84.89 48.72 Z" />
</g>
<g id="#34b4a4ff">
<path fill="#34b4a4" opacity="1.00" d=" M 124.31 49.09 C 126.42 48.85 128.56 48.84 130.68 49.08 C 130.64 57.66 130.64 66.25 130.68 74.83 C 128.55 74.84 126.43 74.83 124.30 74.82 C 124.36 66.24 124.33 57.67 124.31 49.09 Z" />
</g>
<g id="#36b2a4ff">
<path fill="#36b2a4" opacity="1.00" d=" M 319.20 49.54 C 319.78 49.50 320.95 49.42 321.53 49.38 C 323.94 55.04 324.22 61.78 321.51 67.38 C 321.08 67.61 320.22 68.08 319.79 68.31 C 319.36 65.84 320.55 63.51 320.75 61.08 C 321.27 57.16 320.46 53.24 319.20 49.54 Z" />
</g>
<g id="#41a8a6ff">
<path fill="#41a8a6" opacity="1.00" d=" M 314.96 51.96 C 316.57 50.87 317.58 52.52 317.76 53.90 C 318.78 57.55 318.63 61.59 317.04 65.06 C 316.48 65.12 315.34 65.24 314.77 65.29 C 316.05 60.91 315.83 56.39 314.96 51.96 Z" />
</g>
<g id="#33b2a3ff">
<path fill="#33b2a3" opacity="1.00" d=" M 50.69 74.80 C 52.15 72.59 53.53 70.12 55.88 68.74 C 60.01 68.46 64.15 68.72 68.28 68.72 C 68.27 70.76 68.26 72.80 68.24 74.84 C 62.39 74.86 56.54 74.93 50.69 74.80 Z" />
</g>
<g id="#53279aff">
<path fill="#53279a" opacity="1.00" d=" M 61.10 91.15 C 64.97 88.85 68.61 85.79 73.04 84.71 C 76.30 85.19 77.18 88.90 78.78 91.25 C 86.29 103.86 93.78 116.49 101.35 129.06 C 106.74 121.11 110.43 111.93 115.95 104.18 C 120.52 105.97 124.58 108.84 128.94 111.09 C 121.95 124.83 114.18 138.20 106.82 151.76 C 105.59 153.68 104.62 156.48 102.06 156.88 C 98.35 156.78 97.40 152.65 95.70 150.11 C 84.08 130.50 72.59 110.82 61.10 91.15 Z" />
</g>
<g id="#522698ff">
<path fill="#522698" opacity="1.00" d=" M 24.93 111.13 C 29.13 108.47 33.42 105.93 37.91 103.79 C 46.32 117.24 54.10 131.09 62.41 144.62 C 63.34 146.51 65.17 148.76 63.68 150.85 C 61.84 152.36 59.29 152.16 57.06 152.27 C 43.37 152.17 29.68 152.28 16.00 152.25 C 10.93 152.21 5.79 152.63 0.79 151.57 C 1.34 146.56 0.71 141.51 1.22 136.50 C 13.83 136.61 26.45 136.49 39.06 136.58 C 35.24 127.63 29.00 119.96 24.93 111.13 Z" />
</g>
<g id="#502596ff">
<path fill="#502596" opacity="1.00" d=" M 144.33 137.46 C 146.90 133.49 148.95 129.18 151.81 125.39 C 155.10 127.37 158.56 129.10 161.68 131.35 C 163.46 132.45 163.78 134.97 162.57 136.62 C 154.46 150.69 146.11 164.63 138.05 178.72 C 146.68 178.97 155.32 178.68 163.95 178.81 C 165.38 178.89 167.69 178.77 167.29 180.91 C 167.45 184.97 167.46 189.04 167.31 193.10 C 167.60 194.90 165.36 195.35 164.04 195.24 C 150.39 194.76 136.73 195.30 123.06 195.25 C 120.22 195.11 116.65 195.94 114.62 193.36 C 112.89 191.79 113.56 189.24 114.71 187.55 C 124.53 170.82 134.54 154.21 144.33 137.46 Z" />
</g>
<g id="#3732446e">
<path fill="#373244" opacity="0.43" d=" M 0.00 152.64 L 0.79 151.57 C 1.18 160.05 0.85 168.55 0.99 177.05 C 1.01 182.06 1.00 187.07 0.99 192.09 C 0.96 199.88 0.95 207.67 1.03 215.47 C 0.98 225.16 0.96 234.85 1.10 244.54 C 1.03 246.36 0.88 248.18 0.79 250.02 L 0.00 248.59 L 0.00 152.64 Z" />
</g>
<g id="#4e2494ff">
<path fill="#4e2494" opacity="1.00" d=" M 0.99 177.05 C 9.97 176.39 18.97 176.93 27.96 176.73 C 32.06 176.76 37.06 175.89 39.70 179.84 C 29.77 197.13 19.51 214.22 9.47 231.44 C 6.84 235.90 4.50 240.59 1.10 244.54 C 0.96 234.85 0.98 225.16 1.03 215.47 C 5.03 207.57 10.45 200.46 14.10 192.39 C 9.73 192.33 5.36 192.27 0.99 192.09 C 1.00 187.07 1.01 182.06 0.99 177.05 Z" />
</g>
<g id="#6a38a2ff">
<path fill="#6a38a2" opacity="1.00" d=" M 0.99 192.09 C 5.36 192.27 9.73 192.33 14.10 192.39 C 10.45 200.46 5.03 207.57 1.03 215.47 C 0.95 207.67 0.96 199.88 0.99 192.09 Z" />
</g>
<g id="#6c3ea2ff">
<path fill="#6c3ea2" opacity="1.00" d=" M 339.54 217.13 C 340.36 214.61 341.30 212.12 342.52 209.76 C 343.22 212.19 343.69 214.67 344.00 217.17 C 342.51 217.16 341.02 217.15 339.54 217.13 Z" />
</g>
<g id="#4c2391ff">
<path fill="#4c2391" opacity="1.00" d=" M 46.46 219.57 C 47.46 217.93 48.84 216.08 50.98 216.15 C 53.94 216.22 55.13 219.45 56.47 221.58 C 62.51 233.13 69.47 244.20 75.15 255.94 C 69.21 256.02 63.27 255.98 57.33 255.99 C 55.38 251.51 53.15 247.16 50.48 243.08 C 47.75 247.25 45.39 251.65 42.90 255.97 C 36.90 255.98 30.90 256.01 24.90 255.94 C 31.92 243.71 39.23 231.67 46.46 219.57 Z" />
</g>
<g id="#4d2492ff">
<path fill="#4d2492" opacity="1.00" d=" M 87.42 223.87 C 88.84 222.16 90.43 220.21 92.94 220.57 C 117.38 220.63 141.82 220.35 166.26 220.66 C 166.36 224.78 166.83 228.94 166.16 233.02 C 165.67 235.30 163.27 236.56 161.06 236.39 C 145.05 236.43 129.03 236.37 113.01 236.42 C 116.59 243.01 120.71 249.30 124.23 255.94 C 118.19 256.00 112.14 256.00 106.10 255.94 C 99.89 245.25 93.39 234.71 87.42 223.87 Z" />
</g>
<g id="#67369fff">
<path fill="#67369f" opacity="1.00" d=" M 42.90 255.97 C 45.39 251.65 47.75 247.25 50.48 243.08 C 53.15 247.16 55.38 251.51 57.33 255.99 C 52.52 256.00 47.71 255.98 42.90 255.97 Z" />
</g>
<g id="#22133766">
<path fill="#221337" opacity="0.40" d=" M 6.95 256.17 C 12.93 255.75 18.92 255.91 24.90 255.94 C 30.90 256.01 36.90 255.98 42.90 255.97 C 47.71 255.98 52.52 256.00 57.33 255.99 C 63.27 255.98 69.21 256.02 75.15 255.94 C 85.47 255.89 95.79 255.89 106.10 255.94 C 112.14 256.00 118.19 256.00 124.23 255.94 C 178.13 255.88 232.04 255.93 285.95 255.91 C 316.94 256.02 347.93 255.67 378.91 256.08 L 377.56 257.00 L 8.33 257.00 L 6.95 256.17 Z" />
</g>
</svg>
